<svg xmlns="http://www.w3.org/2000/svg" xmlns:xlink="http://www.w3.org/1999/xlink" version="1.1" width="405.922" height="149.933" viewBox="0 0 405.922 149.933">
<text xml:space="preserve" transform="matrix(1 0 -0 1 0 149.93302)" font-size="24.7871" font-family="CMBX12" font-weight="bold"><tspan y="-123.73" x="81.966 102.76238 115.478168 129.4333 142.14908 156.87262 172.36457 194.37552 214.2052 225.60727 238.32306 251.8816 266.60514 282.09709 295.25904 315.41096">RevenueBreakdown</tspan></text>
<path transform="matrix(1,0,0,-1,206.425,159.328)" stroke-width="1.19553" stroke-linecap="butt" stroke-miterlimit="10" stroke-linejoin="miter" fill="none" stroke="#ff8000" d="M0 113.38724H84.084"/>
<path transform="matrix(1,0,0,-1,290.509,45.940767)" stroke-width=".9564" stroke-linecap="round" stroke-linejoin="round" fill="none" stroke="#ff8000" d="M-1.91284 2.55046C-1.75343 1.59402 0 .15938 .4782 0 0-.15938-1.75343-1.59402-1.91284-2.55046"/>
<text fill="#ff8000" xml:space="preserve" transform="matrix(1 0 -0 1 .000005722046 149.93302)" font-size="24.7871" font-family="CMR17"><tspan y="-95.384" x="8.99 24.5563 33.330934 45.35268 58.01889 70.6851 80.74866 97.008998 109.6752 121.05248 127.24926 137.31282">ProductSales</tspan></text>
<text fill="#ff8000" xml:space="preserve" transform="matrix(1 0 -0 1 0 149.93302)" font-size="24.7871" font-family="CMR17"><tspan y="-95.384" x="337.504 348.8813 360.25859 366.45536 377.83265">40.0%</tspan></text>
<path transform="matrix(1,0,0,-1,206.425,159.328)" stroke-width="1.19553" stroke-linecap="butt" stroke-miterlimit="10" stroke-linejoin="miter" fill="none" stroke="#00ff00" d="M0 85.04042H84.084"/>
<path transform="matrix(1,0,0,-1,290.509,74.28758)" stroke-width=".9564" stroke-linecap="round" stroke-linejoin="round" fill="none" stroke="#00ff00" d="M-1.91284 2.55046C-1.75343 1.59402 0 .15938 .4782 0 0-.15938-1.75343-1.59402-1.91284-2.55046"/>
<text fill="#00ff00" xml:space="preserve" transform="matrix(1 0 -0 1 -.0000019073487 149.933)" font-size="24.7871" font-family="CMR17"><tspan y="-69.448" x="13.711 26.377209 39.04342 51.70963 60.6082 70.67176 79.446399 85.64317 98.30938 107.084018 113.28079 124.65807 137.32428">Subscriptions</tspan></text>
<text fill="#00ff00" xml:space="preserve" transform="matrix(1 0 -0 1 0 149.93302)" font-size="24.7871" font-family="CMR17"><tspan y="-67.037" x="337.504 348.8813 360.25859 366.45536 377.83265">30.0%</tspan></text>
<path transform="matrix(1,0,0,-1,206.425,159.328)" stroke-width="1.19553" stroke-linecap="butt" stroke-miterlimit="10" stroke-linejoin="miter" fill="none" stroke="#0000ff" d="M0 56.69362H84.084"/>
<path transform="matrix(1,0,0,-1,290.509,102.634387)" stroke-width=".9564" stroke-linecap="round" stroke-linejoin="round" fill="none" stroke="#0000ff" d="M-1.91284 2.55046C-1.75343 1.59402 0 .15938 .4782 0 0-.15938-1.75343-1.59402-1.91284-2.55046"/>
<text fill="#0000ff" xml:space="preserve" transform="matrix(1 0 -0 1 .0000076293949 149.93302)" font-size="24.7871" font-family="CMR17"><tspan y="-38.83" x="67.443 80.10921 90.17277 98.9474 110.96915 117.165927 127.229488 137.29305">Services</tspan></text>
<text fill="#0000ff" xml:space="preserve" transform="matrix(1 0 -0 1 0 149.93302)" font-size="24.7871" font-family="CMR17"><tspan y="-38.691" x="337.504 348.8813 360.25859 366.45536 377.83265">20.0%</tspan></text>
<path transform="matrix(1,0,0,-1,206.425,159.328)" stroke-width="1.19553" stroke-linecap="butt" stroke-miterlimit="10" stroke-linejoin="miter" fill="none" stroke="#f4d03f" d="M0 28.3468H84.084"/>
<path transform="matrix(1,0,0,-1,290.509,130.9812)" stroke-width=".9564" stroke-linecap="round" stroke-linejoin="round" fill="none" stroke="#f4d03f" d="M-1.91284 2.55046C-1.75343 1.59402 0 .15938 .4782 0 0-.15938-1.75343-1.59402-1.91284-2.55046"/>
<text fill="#f4d03f" xml:space="preserve" transform="matrix(1 0 -0 1 .0000076293949 149.933)" font-size="24.7871" font-family="CMR17"><tspan y="-10.345" x="79.171 97.01771 105.79234 118.45855 128.52211 137.29674">Others</tspan></text>
<text fill="#f4d03f" xml:space="preserve" transform="matrix(1 0 -0 1 0 149.933)" font-size="24.7871" font-family="CMR17"><tspan y="-10.345" x="337.504 348.8813 360.25859 366.45536 377.83265">10.0%</tspan></text>
</svg>
